<?xml version="1.0" encoding="UTF-8"?>
<svg width="322px" height="101px" viewBox="0 0 322 101" version="1.1" xmlns="http://www.w3.org/2000/svg" xmlns:xlink="http://www.w3.org/1999/xlink">
    <!-- Generator: Sketch 41.2 (35397) - http://www.bohemiancoding.com/sketch -->
    <title>emty copy</title>
    <desc>Created with Sketch.</desc>
    <defs>
        <linearGradient x1="50%" y1="0%" x2="50%" y2="100%" id="linearGradient-1">
            <stop stop-color="#F35D4B" offset="0%"></stop>
            <stop stop-color="#E62017" offset="100%"></stop>
        </linearGradient>
    </defs>
    <g id="Page-1" stroke="none" stroke-width="1" fill="none" fill-rule="evenodd">
        <g id="YT" transform="translate(-1054.000000, -99.000000)">
            <g id="emty-copy" transform="translate(1055.000000, 103.000000)">
                <g id="empty" transform="translate(4.510770, 22.609023)">
                    <g id="Group" fill="url(#linearGradient-1)">
                        <g>
                            <rect id="Rectangle-6" x="0" y="0" width="76.6830942" height="74.3909774" rx="14"></rect>
                        </g>
                    </g>
                    <ellipse id="Oval-4" fill="#FFFFFF" cx="24.3797434" cy="24.7969925" rx="10.0956376" ry="9.48120301"></ellipse>
                    <ellipse id="Oval-4" fill="#FFFFFF" cx="54.451545" cy="24.7969925" rx="10.0956376" ry="9.48120301"></ellipse>
                    <ellipse id="Oval-4" fill="#424242" cx="24.4333388" cy="20.056391" rx="4.88666777" ry="4.7406015"></ellipse>
                    <ellipse id="Oval-4" fill="#424242" cx="54.5051405" cy="20.056391" rx="4.88666777" ry="4.7406015"></ellipse>
                    <path d="M27.8164165,55.4285714 C27.8164165,55.4285714 31.2105157,48.8646617 39.6571884,48.8646617 C48.1038612,48.8646617 51.4979603,55.4285714 51.4979603,55.4285714" id="Path-2" stroke="#FFFFFF" stroke-width="5" stroke-linecap="round"></path>
                </g>
                <g id="Group-3">
                    <path d="M6.69097587,21.932407 L6.69097587,21.1047932 C6.69097587,20.7218287 6.38804477,20.4210526 6.01436033,20.4210526 C5.63807063,20.4210526 5.33774479,20.7271737 5.33774479,21.1047932 L5.33774479,21.932407 L4.51013101,21.932407 C4.12716647,21.932407 3.82639041,22.2353381 3.82639041,22.6090226 C3.82639041,22.9853123 4.1325115,23.2856381 4.51013101,23.2856381 L5.33774479,23.2856381 L5.33774479,24.1132519 C5.33774479,24.4962164 5.64067589,24.7969925 6.01436033,24.7969925 C6.39065003,24.7969925 6.69097587,24.4908714 6.69097587,24.1132519 L6.69097587,23.2856381 L7.51858965,23.2856381 C7.90155419,23.2856381 8.20233026,22.982707 8.20233026,22.6090226 C8.20233026,22.2327329 7.89620916,21.932407 7.51858965,21.932407 L6.69097587,21.932407 Z" id="Combined-Shape" fill="#F25646"></path>
                    <path d="M2.93200066,13.1805273 L2.93200066,12.3529135 C2.93200066,11.969949 2.62906957,11.6691729 2.25538512,11.6691729 C1.87909542,11.6691729 1.57876959,11.975294 1.57876959,12.3529135 L1.57876959,13.1805273 L0.751155801,13.1805273 C0.368191267,13.1805273 0.0674151992,13.4834584 0.0674151992,13.8571429 C0.0674151992,14.2334326 0.373536294,14.5337584 0.751155801,14.5337584 L1.57876959,14.5337584 L1.57876959,15.3613722 C1.57876959,15.7443367 1.88170068,16.0451128 2.25538512,16.0451128 C2.63167483,16.0451128 2.93200066,15.7389917 2.93200066,15.3613722 L2.93200066,14.5337584 L3.75961445,14.5337584 C4.14257898,14.5337584 4.44335505,14.2308273 4.44335505,13.8571429 C4.44335505,13.4808532 4.13723395,13.1805273 3.75961445,13.1805273 L2.93200066,13.1805273 Z" id="Combined-Shape-Copy-2" fill="#F25646" opacity="0.287647192"></path>
                    <path d="M38.3039574,11.6955268 L38.3039574,11.2817199 C38.3039574,11.0834084 38.1524918,10.9398496 37.9656496,10.9398496 C37.7842717,10.9398496 37.6273418,11.0929102 37.6273418,11.2817199 L37.6273418,11.6955268 L37.2135349,11.6955268 C37.0152234,11.6955268 36.8716646,11.8469924 36.8716646,12.0338346 C36.8716646,12.2152125 37.0247252,12.3721424 37.2135349,12.3721424 L37.6273418,12.3721424 L37.6273418,12.7859492 C37.6273418,12.9842607 37.7788074,13.1278195 37.9656496,13.1278195 C38.1470275,13.1278195 38.3039574,12.974759 38.3039574,12.7859492 L38.3039574,12.3721424 L38.7177642,12.3721424 C38.9160757,12.3721424 39.0596346,12.2206768 39.0596346,12.0338346 C39.0596346,11.8524567 38.906574,11.6955268 38.7177642,11.6955268 L38.3039574,11.6955268 Z" id="Combined-Shape-Copy-4" fill="#F25646" opacity="0.800000012" transform="translate(37.965650, 12.033835) rotate(28.000000) translate(-37.965650, -12.033835) "></path>
                    <ellipse id="Oval" fill="#F35B49" opacity="0.200000003" cx="13.9082083" cy="9.84586466" rx="1.12769256" ry="1.09398496"></ellipse>
                    <ellipse id="Oval-Copy-7" fill="#F35B49" opacity="0.200000003" cx="28.9441091" cy="1.82330827" rx="1.12769256" ry="1.09398496"></ellipse>
                    <ellipse id="Oval" fill="#F35B49" cx="21.4261587" cy="18.5977444" rx="1.8794876" ry="1.82330827"></ellipse>
                    <ellipse id="Oval-Copy-2" fill="#F35B49" opacity="0.100000001" cx="34.2066744" cy="6.19924812" rx="1.12769256" ry="1.09398496"></ellipse>
                    <ellipse id="Oval-Copy-4" fill="#F35B49" opacity="0.800000012" cx="55.2569355" cy="11.3045113" rx="1.12769256" ry="1.09398496"></ellipse>
                    <ellipse id="Oval-Copy" fill="#F35B49" opacity="0.200000003" cx="71.7964264" cy="8.38721805" rx="1.8794876" ry="1.82330827"></ellipse>
                    <ellipse id="Oval-Copy-8" fill="#F35B49" opacity="0.200000003" cx="57.5123207" cy="3.28195489" rx="1.8794876" ry="1.82330827"></ellipse>
                    <ellipse id="Oval-Copy-3" fill="#F35B49" opacity="0.5" cx="43.6041124" cy="9.48120301" rx="0.751795041" ry="0.729323308"></ellipse>
                    <ellipse id="Oval-Copy-5" fill="#F35B49" cx="47.3630876" cy="18.962406" rx="0.751795041" ry="0.729323308"></ellipse>
                    <ellipse id="Oval-Copy-6" fill="#F35B49" opacity="0.600000024" cx="63.9025785" cy="13.1278195" rx="0.751795041" ry="0.729323308"></ellipse>
                    <ellipse id="Oval-Copy-9" fill="#F35B49" opacity="0.200000003" cx="67.6615537" cy="0.729323308" rx="0.751795041" ry="0.729323308"></ellipse>
                    <path d="M13.4571312,15.3684972 L13.4571312,14.5408835 C13.4571312,14.1579189 13.1542001,13.8571429 12.7805157,13.8571429 C12.404226,13.8571429 12.1039002,14.163264 12.1039002,14.5408835 L12.1039002,15.3684972 L11.2762864,15.3684972 C10.8933218,15.3684972 10.5925458,15.6714283 10.5925458,16.0451128 C10.5925458,16.4214025 10.8986669,16.7217283 11.2762864,16.7217283 L12.1039002,16.7217283 L12.1039002,17.5493421 C12.1039002,17.9323066 12.4068313,18.2330827 12.7805157,18.2330827 C13.1568054,18.2330827 13.4571312,17.9269616 13.4571312,17.5493421 L13.4571312,16.7217283 L14.284745,16.7217283 C14.6677096,16.7217283 14.9684856,16.4187972 14.9684856,16.0451128 C14.9684856,15.6688231 14.6623645,15.3684972 14.284745,15.3684972 L13.4571312,15.3684972 Z" id="Combined-Shape-Copy" fill="#F25646" opacity="0.5"></path>
                    <path d="M26.2376469,11.7218807 L26.2376469,10.8942669 C26.2376469,10.5113024 25.9347158,10.2105263 25.5610314,10.2105263 C25.1847417,10.2105263 24.8844159,10.5166474 24.8844159,10.8942669 L24.8844159,11.7218807 L24.0568021,11.7218807 C23.6738375,11.7218807 23.3730615,12.0248118 23.3730615,12.3984962 C23.3730615,12.7747859 23.6791826,13.0751118 24.0568021,13.0751118 L24.8844159,13.0751118 L24.8844159,13.9027256 C24.8844159,14.2856901 25.187347,14.5864662 25.5610314,14.5864662 C25.9373211,14.5864662 26.2376469,14.2803451 26.2376469,13.9027256 L26.2376469,13.0751118 L27.0652607,13.0751118 C27.4482253,13.0751118 27.7490013,12.7721807 27.7490013,12.3984962 C27.7490013,12.0222065 27.4428802,11.7218807 27.0652607,11.7218807 L26.2376469,11.7218807 Z" id="Combined-Shape-Copy-3" fill="#F25646" opacity="0.800000012"></path>
                    <path d="M36.4996493,16.349713 L36.4996493,15.3841635 C36.4996493,14.9373716 36.1462296,14.5864662 35.7102645,14.5864662 C35.2712598,14.5864662 34.9208797,14.9436074 34.9208797,15.3841635 L34.9208797,16.349713 L33.9553303,16.349713 C33.5085383,16.349713 33.1576329,16.7031326 33.1576329,17.1390977 C33.1576329,17.5781024 33.5147742,17.9284825 33.9553303,17.9284825 L34.9208797,17.9284825 L34.9208797,18.894032 C34.9208797,19.3408239 35.2742993,19.6917293 35.7102645,19.6917293 C36.1492691,19.6917293 36.4996493,19.334588 36.4996493,18.894032 L36.4996493,17.9284825 L37.4651987,17.9284825 C37.9119906,17.9284825 38.262896,17.5750629 38.262896,17.1390977 C38.262896,16.7000931 37.9057548,16.349713 37.4651987,16.349713 L36.4996493,16.349713 Z" id="Combined-Shape-Copy-5" fill="#F25646"></path>
                    <path d="M20.4864149,7.09404846 L20.4864149,6.4043703 C20.4864149,6.09684213 20.2339723,5.83458647 19.9225686,5.83458647 C19.6202721,5.83458647 19.3587223,6.08968738 19.3587223,6.4043703 L19.3587223,7.09404846 L18.6690442,7.09404846 C18.361516,7.09404846 18.0992603,7.34649103 18.0992603,7.65789474 C18.0992603,7.96019123 18.3543612,8.22174102 18.6690442,8.22174102 L19.3587223,8.22174102 L19.3587223,8.91141917 C19.3587223,9.21894734 19.6111649,9.48120301 19.9225686,9.48120301 C20.2248651,9.48120301 20.4864149,9.2261021 20.4864149,8.91141917 L20.4864149,8.22174102 L21.176093,8.22174102 C21.4836212,8.22174102 21.7458769,7.96929844 21.7458769,7.65789474 C21.7458769,7.35559824 21.490776,7.09404846 21.176093,7.09404846 L20.4864149,7.09404846 Z" id="Combined-Shape-Copy-7" fill="#F25646" opacity="0.200000003"></path>
                    <path d="M10.7130793,4.17675522 L10.7130793,3.48707707 C10.7130793,3.1795489 10.4606368,2.91729323 10.1492331,2.91729323 C9.84693657,2.91729323 9.58538678,3.17239415 9.58538678,3.48707707 L9.58538678,4.17675522 L8.89570862,4.17675522 C8.58818046,4.17675522 8.32592479,4.4291978 8.32592479,4.7406015 C8.32592479,5.042898 8.5810257,5.30444778 8.89570862,5.30444778 L9.58538678,5.30444778 L9.58538678,5.99412594 C9.58538678,6.30165411 9.83782936,6.56390977 10.1492331,6.56390977 C10.4515296,6.56390977 10.7130793,6.30880886 10.7130793,5.99412594 L10.7130793,5.30444778 L11.4027575,5.30444778 C11.7102857,5.30444778 11.9725413,5.05200521 11.9725413,4.7406015 C11.9725413,4.43830501 11.7174404,4.17675522 11.4027575,4.17675522 L10.7130793,4.17675522 Z" id="Combined-Shape-Copy-12" fill="#F25646" opacity="0.200000003"></path>
                    <path d="M70.0735182,16.5448197 L70.0735182,15.8551416 C70.0735182,15.5476134 69.8210756,15.2853577 69.5096719,15.2853577 C69.2073754,15.2853577 68.9458256,15.5404586 68.9458256,15.8551416 L68.9458256,16.5448197 L68.2561475,16.5448197 C67.9486193,16.5448197 67.6863637,16.7972623 67.6863637,17.108666 C67.6863637,17.4109625 67.9414646,17.6725123 68.2561475,17.6725123 L68.9458256,17.6725123 L68.9458256,18.3621904 C68.9458256,18.6697186 69.1982682,18.9319743 69.5096719,18.9319743 C69.8119684,18.9319743 70.0735182,18.6768734 70.0735182,18.3621904 L70.0735182,17.6725123 L70.7631964,17.6725123 C71.0707245,17.6725123 71.3329802,17.4200697 71.3329802,17.108666 C71.3329802,16.8063695 71.0778793,16.5448197 70.7631964,16.5448197 L70.0735182,16.5448197 Z" id="Combined-Shape-Copy-9" fill="#F25646" transform="translate(69.509672, 17.108666) rotate(33.000000) translate(-69.509672, -17.108666) "></path>
                    <path d="M81.3504438,20.1914363 L81.3504438,19.5017581 C81.3504438,19.1942299 81.0980013,18.9319743 80.7865976,18.9319743 C80.4843011,18.9319743 80.2227513,19.1870752 80.2227513,19.5017581 L80.2227513,20.1914363 L79.5330731,20.1914363 C79.2255449,20.1914363 78.9632893,20.4438788 78.9632893,20.7552825 C78.9632893,21.057579 79.2183902,21.3191288 79.5330731,21.3191288 L80.2227513,21.3191288 L80.2227513,22.008807 C80.2227513,22.3163351 80.4751938,22.5785908 80.7865976,22.5785908 C81.088894,22.5785908 81.3504438,22.3234899 81.3504438,22.008807 L81.3504438,21.3191288 L82.040122,21.3191288 C82.3476502,21.3191288 82.6099058,21.0666862 82.6099058,20.7552825 C82.6099058,20.4529861 82.3548049,20.1914363 82.040122,20.1914363 L81.3504438,20.1914363 Z" id="Combined-Shape-Copy-10" fill="#F25646" transform="translate(80.786598, 20.755283) rotate(8.000000) translate(-80.786598, -20.755283) "></path>
                    <path d="M56.5725769,18.7632214 L56.5725769,18.0735432 C56.5725769,17.7660151 56.3201343,17.5037594 56.0087306,17.5037594 C55.7064341,17.5037594 55.4448843,17.7588603 55.4448843,18.0735432 L55.4448843,18.7632214 L54.7552061,18.7632214 C54.447678,18.7632214 54.1854223,19.015664 54.1854223,19.3270677 C54.1854223,19.6293642 54.4405232,19.890914 54.7552061,19.890914 L55.4448843,19.890914 L55.4448843,20.5805921 C55.4448843,20.8881203 55.6973269,21.1503759 56.0087306,21.1503759 C56.3110271,21.1503759 56.5725769,20.895275 56.5725769,20.5805921 L56.5725769,19.890914 L57.262255,19.890914 C57.5697832,19.890914 57.8320389,19.6384714 57.8320389,19.3270677 C57.8320389,19.0247712 57.5769379,18.7632214 57.262255,18.7632214 L56.5725769,18.7632214 Z" id="Combined-Shape-Copy-6" fill="#F25646"></path>
                    <path d="M85.1407884,11.4699883 L85.1407884,10.7803102 C85.1407884,10.472782 84.8883459,10.2105263 84.5769422,10.2105263 C84.2746457,10.2105263 84.0130959,10.4656272 84.0130959,10.7803102 L84.0130959,11.4699883 L83.3234177,11.4699883 C83.0158895,11.4699883 82.7536339,11.7224309 82.7536339,12.0338346 C82.7536339,12.3361311 83.0087348,12.5976809 83.3234177,12.5976809 L84.0130959,12.5976809 L84.0130959,13.287359 C84.0130959,13.5948872 84.2655384,13.8571429 84.5769422,13.8571429 C84.8792386,13.8571429 85.1407884,13.6020419 85.1407884,13.287359 L85.1407884,12.5976809 L85.8304666,12.5976809 C86.1379948,12.5976809 86.4002504,12.3452383 86.4002504,12.0338346 C86.4002504,11.7315381 86.1451495,11.4699883 85.8304666,11.4699883 L85.1407884,11.4699883 Z" id="Combined-Shape-Copy-11" fill="#F25646" opacity="0.200000003"></path>
                    <path d="M62.5869372,7.09404846 L62.5869372,6.4043703 C62.5869372,6.09684213 62.3344946,5.83458647 62.0230909,5.83458647 C61.7207944,5.83458647 61.4592446,6.08968738 61.4592446,6.4043703 L61.4592446,7.09404846 L60.7695665,7.09404846 C60.4620383,7.09404846 60.1997826,7.34649103 60.1997826,7.65789474 C60.1997826,7.96019123 60.4548836,8.22174102 60.7695665,8.22174102 L61.4592446,8.22174102 L61.4592446,8.91141917 C61.4592446,9.21894734 61.7116872,9.48120301 62.0230909,9.48120301 C62.3253874,9.48120301 62.5869372,9.2261021 62.5869372,8.91141917 L62.5869372,8.22174102 L63.2766153,8.22174102 C63.5841435,8.22174102 63.8463992,7.96929844 63.8463992,7.65789474 C63.8463992,7.35559824 63.5912983,7.09404846 63.2766153,7.09404846 L62.5869372,7.09404846 Z" id="Combined-Shape-Copy-8" fill="#F25646" opacity="0.100000001"></path>
                    <path d="M78.3746331,3.44743191 L78.3746331,2.75775376 C78.3746331,2.45022559 78.1221905,2.18796992 77.8107868,2.18796992 C77.5084903,2.18796992 77.2469405,2.44307084 77.2469405,2.75775376 L77.2469405,3.44743191 L76.5572623,3.44743191 C76.2497342,3.44743191 75.9874785,3.69987449 75.9874785,4.0112782 C75.9874785,4.31357469 76.2425794,4.57512448 76.5572623,4.57512448 L77.2469405,4.57512448 L77.2469405,5.26480263 C77.2469405,5.5723308 77.4993831,5.83458647 77.8107868,5.83458647 C78.1130833,5.83458647 78.3746331,5.57948555 78.3746331,5.26480263 L78.3746331,4.57512448 L79.0643112,4.57512448 C79.3718394,4.57512448 79.634095,4.3226819 79.634095,4.0112782 C79.634095,3.7089817 79.3789941,3.44743191 79.0643112,3.44743191 L78.3746331,3.44743191 Z" id="Combined-Shape-Copy-13" fill="#F25646" opacity="0.100000001"></path>
                    <rect id="Rectangle-13" fill="#F25646" x="45.8594975" y="13.8571429" width="3.00718017" height="0.729323308" rx="0.364661654"></rect>
                    <rect id="Rectangle-13-Copy-3" fill="#F25646" opacity="0.200000003" x="42.1005223" y="2.91729323" width="3.00718017" height="0.729323308" rx="0.364661654"></rect>
                    <rect id="Rectangle-13-Copy" fill="#F25646" opacity="0.100000001" x="50.3702678" y="5.83458647" width="3.00718017" height="0.729323308" rx="0.364661654"></rect>
                    <rect id="Rectangle-13-Copy-2" fill="#F25646" opacity="0.400000006" x="74.4277091" y="13.8571429" width="3.00718017" height="0.729323308" rx="0.364661654"></rect>
                </g>
                <text id="Uh-Oh!" font-family="AvenirNext-Bold, Avenir Next" font-size="42" font-weight="bold" letter-spacing="0.690410912" fill="#646464">
                    <tspan x="97" y="57">Uh Oh!</tspan>
                </text>
                <text id="Looks-like-there’s-n" font-family="AvenirNext-Bold, Avenir Next" font-size="10" font-weight="bold" letter-spacing="0.164383531" fill="#646464">
                    <tspan x="102" y="77">Looks like there’s no subtitles by that name.</tspan>
                    <tspan x="102" y="91">Try changin the title?</tspan>
                </text>
            </g>
        </g>
    </g>
</svg>