<?xml version="1.0" encoding="UTF-8"?>
<svg width="54px" height="54px" viewBox="0 0 54 54" version="1.1" xmlns="http://www.w3.org/2000/svg" xmlns:xlink="http://www.w3.org/1999/xlink">
    <!-- Generator: Sketch 49.3 (51167) - http://www.bohemiancoding.com/sketch -->
    <title>Shape</title>
    <desc>Created with Sketch.</desc>
    <defs></defs>
    <g id="Page-1" stroke="none" stroke-width="1" fill="none" fill-rule="evenodd">
        <g id="Desktop-HD" transform="translate(-200.000000, -1918.000000)" fill="#9B9B9B" fill-rule="nonzero">
            <g id="chrome" transform="translate(200.000000, 1907.000000)">
                <g transform="translate(0.000000, 11.000000)" id="Shape">
                    <path d="M14.316743,22.8094653 L5.99887861,10.0278255 C11.1812129,3.5825694 18.9547144,0.0333236191 26.902412,0.000661848145 C31.5077218,-0.0319999229 36.2110168,1.14382383 40.4897088,3.61523117 C45.2147783,6.35881994 48.8075731,10.300007 51.0938971,14.8291059 L28.7423585,13.6532821 C22.4168622,13.2831154 16.396209,16.8432484 14.316743,22.8094653 Z M17.8986505,27.0010592 C17.8986505,32.0309719 21.9704846,36.1028061 27.0003974,36.1028061 C32.0303101,36.1028061 36.1021442,32.0309719 36.1021442,27.0010592 C36.1021442,21.9711465 32.0303101,17.8993124 27.0003974,17.8993124 C21.9704846,17.8993124 17.8986505,21.9602592 17.8986505,27.0010592 Z M52.1826228,17.289626 L36.9731248,18.0735085 C41.0993952,22.8965633 41.1647187,29.8535205 37.6916837,35.1882765 L25.4870686,53.9579075 C30.5496431,54.230089 35.7646392,53.1195888 40.4897088,50.376 C52.1826228,43.6259007 56.9185796,29.4724665 52.1826228,17.289626 Z M14.5562626,32.1833935 L4.39845183,12.2052769 C1.62220129,16.4513072 0,21.5465435 0,27.0010592 C0,40.5012579 9.88562936,51.6824708 22.8088034,53.6639516 L29.7439861,40.0766549 C23.4729261,41.2524786 17.4196112,37.8121054 14.5562626,32.1833935 Z"></path>
                </g>
            </g>
        </g>
    </g>
</svg>