<?xml version="1.0" encoding="UTF-8"?>
<svg width="551px" height="300px" viewBox="0 0 551 300" version="1.1" xmlns="http://www.w3.org/2000/svg" xmlns:xlink="http://www.w3.org/1999/xlink">
    <!-- Generator: Sketch 49.3 (51167) - http://www.bohemiancoding.com/sketch -->
    <title>illustrations</title>
    <desc>Created with Sketch.</desc>
    <defs></defs>
    <g id="Page-1" stroke="none" stroke-width="1" fill="none" fill-rule="evenodd">
        <g id="Desktop-HD" transform="translate(-199.000000, -725.000000)">
            <g id="card-1" transform="translate(199.000000, 696.000000)">
                <g id="illustrations" transform="translate(-1.000000, 27.000000)">
                    <path d="M403.809044,302.075497 C403.809044,302.075497 403.898694,126.496342 403.809044,126.395519 C361.588042,78.9129121 300.037289,49 231.5,49 C104.198365,49 1,152.198365 1,279.5 C1,287.117109 1.36947514,294.647923 2.09148133,302.075497 C2.09647069,302.126825 403.809044,302.075497 403.809044,302.075497 Z" id="Oval-3" fill="#4387D6" opacity="0.200000003" transform="translate(202.424444, 175.549155) scale(-1, 1) translate(-202.424444, -175.549155) "></path>
                    <g id="Group-Copy-3" transform="translate(23.151212, 227.668966) rotate(2.000000) translate(-23.151212, -227.668966) translate(3.651212, 208.668966)">
                        <rect id="Rectangle-6" fill="#2B63A5" x="0" y="-2.84217094e-14" width="38.4236453" height="38" rx="8.96"></rect>
                        <rect id="Rectangle-7" fill="#FFFFFF" x="3.05642633" y="17.7333333" width="16.1553963" height="2.56375851" rx="1.28187926"></rect>
                        <rect id="Rectangle-7" fill="#FFFFFF" x="22.268249" y="17.7333333" width="12.2257053" height="2.56375851" rx="1.28187926"></rect>
                        <rect id="Rectangle-7" fill="#FFFFFF" x="3.05642633" y="23.4333333" width="9.60591133" height="2.56375851" rx="1.28187926"></rect>
                        <rect id="Rectangle-7" fill="#FFFFFF" x="15.718764" y="23.4333333" width="18.7751903" height="2.56375851" rx="1.28187926"></rect>
                        <rect id="Rectangle-7" fill="#FFFFFF" x="28.3811017" y="28.8583577" width="6.11285266" height="2.56375851" rx="1.28187926"></rect>
                        <rect id="Rectangle-7" fill="#FFFFFF" x="3.05642633" y="28.8583577" width="22.7048813" height="2.56375851" rx="1.28187926"></rect>
                    </g>
                    <path d="M80,245 C100.225693,232.744844 106.568398,210.070015 147,215.5 C187.431602,220.929985 203.03404,235.465132 227.5,235 C240.215332,234.758264 247.755647,247.221351 292.5,245 C337.244353,242.778649 326.099764,219.560602 368.5,215.5 C403.23632,212.173359 407.250584,230.839125 436,235 C464.749416,239.160875 522,230.5 522,230.5 L522,301.5 L1,301.5 C1,301.5 59.7743066,257.255156 80,245 Z" id="Path-4" fill="#357ED4" transform="translate(261.500000, 258.087227) scale(-1, 1) translate(-261.500000, -258.087227) "></path>
                    <g id="Group" transform="translate(134.702749, 254.460904) rotate(-25.000000) translate(-134.702749, -254.460904) translate(115.202749, 235.460904)">
                        <rect id="Rectangle-6" fill="#2B63A5" x="-1.42108547e-14" y="0" width="38.4236453" height="38" rx="8.96"></rect>
                        <rect id="Rectangle-7" fill="#FFFFFF" x="3.05642633" y="17.7333333" width="16.1553963" height="2.56375851" rx="1.28187926"></rect>
                        <rect id="Rectangle-7" fill="#FFFFFF" x="22.268249" y="17.7333333" width="12.2257053" height="2.56375851" rx="1.28187926"></rect>
                        <rect id="Rectangle-7" fill="#FFFFFF" x="3.05642633" y="23.4333333" width="9.60591133" height="2.56375851" rx="1.28187926"></rect>
                        <rect id="Rectangle-7" fill="#FFFFFF" x="15.718764" y="23.4333333" width="18.7751903" height="2.56375851" rx="1.28187926"></rect>
                        <rect id="Rectangle-7" fill="#FFFFFF" x="28.3811017" y="28.8583577" width="6.11285266" height="2.56375851" rx="1.28187926"></rect>
                        <rect id="Rectangle-7" fill="#FFFFFF" x="3.05642633" y="28.8583577" width="22.7048813" height="2.56375851" rx="1.28187926"></rect>
                    </g>
                    <g id="Group-Copy-2" transform="translate(371.150831, 228.089203) rotate(140.000000) translate(-371.150831, -228.089203) translate(351.650831, 209.089203)">
                        <rect id="Rectangle-6" fill="#2B63A5" x="0" y="0" width="38.4236453" height="38" rx="8.96"></rect>
                        <rect id="Rectangle-7" fill="#FFFFFF" x="3.05642633" y="17.7333333" width="16.1553963" height="2.56375851" rx="1.28187926"></rect>
                        <rect id="Rectangle-7" fill="#FFFFFF" x="22.268249" y="17.7333333" width="12.2257053" height="2.56375851" rx="1.28187926"></rect>
                        <rect id="Rectangle-7" fill="#FFFFFF" x="3.05642633" y="23.4333333" width="9.60591133" height="2.56375851" rx="1.28187926"></rect>
                        <rect id="Rectangle-7" fill="#FFFFFF" x="15.718764" y="23.4333333" width="18.7751903" height="2.56375851" rx="1.28187926"></rect>
                        <rect id="Rectangle-7" fill="#FFFFFF" x="28.3811017" y="28.8583577" width="6.11285266" height="2.56375851" rx="1.28187926"></rect>
                        <rect id="Rectangle-7" fill="#FFFFFF" x="3.05642633" y="28.8583577" width="22.7048813" height="2.56375851" rx="1.28187926"></rect>
                    </g>
                    <g id="Group-Copy-5" transform="translate(53.150831, 251.089203) rotate(140.000000) translate(-53.150831, -251.089203) translate(33.650831, 232.089203)">
                        <rect id="Rectangle-6" fill="#2B63A5" x="-1.42108547e-14" y="0" width="38.4236453" height="38" rx="8.96"></rect>
                        <rect id="Rectangle-7" fill="#FFFFFF" x="3.05642633" y="17.7333333" width="16.1553963" height="2.56375851" rx="1.28187926"></rect>
                        <rect id="Rectangle-7" fill="#FFFFFF" x="22.268249" y="17.7333333" width="12.2257053" height="2.56375851" rx="1.28187926"></rect>
                        <rect id="Rectangle-7" fill="#FFFFFF" x="3.05642633" y="23.4333333" width="9.60591133" height="2.56375851" rx="1.28187926"></rect>
                        <rect id="Rectangle-7" fill="#FFFFFF" x="15.718764" y="23.4333333" width="18.7751903" height="2.56375851" rx="1.28187926"></rect>
                        <rect id="Rectangle-7" fill="#FFFFFF" x="28.3811017" y="28.8583577" width="6.11285266" height="2.56375851" rx="1.28187926"></rect>
                        <rect id="Rectangle-7" fill="#FFFFFF" x="3.05642633" y="28.8583577" width="22.7048813" height="2.56375851" rx="1.28187926"></rect>
                    </g>
                    <path d="M1,261 C1,261 57.5683979,238.570015 98,244 C138.431602,249.429985 145.255647,263.221351 190,261 C234.744353,258.778649 259.599764,216.560602 302,212.5 C336.73632,209.173359 362.250584,230.734019 391,234.894894 C419.749416,239.055769 441.88636,226.546637 465.5,234.894894 C527.790045,256.916627 551.5,302 551.5,302 L1,302 L1,261 Z" id="Path-4" fill="#4387D6"></path>
                    <g id="Group-Copy" transform="translate(210.500000, 271.000000) rotate(-2.000000) translate(-210.500000, -271.000000) translate(193.000000, 254.000000)">
                        <rect id="Rectangle-6" fill="#2B63A5" x="-2.84217094e-14" y="1.13686838e-13" width="34.4827586" height="34" rx="8.064"></rect>
                        <rect id="Rectangle-7" fill="#FFFFFF" x="2.74294671" y="15.8666667" width="14.4984326" height="2.2938892" rx="1.1469446"></rect>
                        <rect id="Rectangle-7" fill="#FFFFFF" x="19.984326" y="15.8666667" width="10.9717868" height="2.2938892" rx="1.1469446"></rect>
                        <rect id="Rectangle-7" fill="#FFFFFF" x="2.74294671" y="20.9666667" width="8.62068966" height="2.2938892" rx="1.1469446"></rect>
                        <rect id="Rectangle-7" fill="#FFFFFF" x="14.1065831" y="20.9666667" width="16.8495298" height="2.2938892" rx="1.1469446"></rect>
                        <rect id="Rectangle-7" fill="#FFFFFF" x="25.4702194" y="25.8206358" width="5.48589342" height="2.2938892" rx="1.1469446"></rect>
                        <rect id="Rectangle-7" fill="#FFFFFF" x="2.74294671" y="25.8206358" width="20.3761755" height="2.2938892" rx="1.1469446"></rect>
                    </g>
                    <g id="Group-Copy-6" transform="translate(316.849169, 261.089203) scale(-1, 1) rotate(140.000000) translate(-316.849169, -261.089203) translate(297.349169, 242.089203)">
                        <rect id="Rectangle-6" fill="#2B63A5" x="0" y="-5.68434189e-14" width="38.4236453" height="38" rx="8.96"></rect>
                        <rect id="Rectangle-7" fill="#FFFFFF" x="3.05642633" y="17.7333333" width="16.1553963" height="2.56375851" rx="1.28187926"></rect>
                        <rect id="Rectangle-7" fill="#FFFFFF" x="22.268249" y="17.7333333" width="12.2257053" height="2.56375851" rx="1.28187926"></rect>
                        <rect id="Rectangle-7" fill="#FFFFFF" x="3.05642633" y="23.4333333" width="9.60591133" height="2.56375851" rx="1.28187926"></rect>
                        <rect id="Rectangle-7" fill="#FFFFFF" x="15.718764" y="23.4333333" width="18.7751903" height="2.56375851" rx="1.28187926"></rect>
                        <rect id="Rectangle-7" fill="#FFFFFF" x="28.3811017" y="28.8583577" width="6.11285266" height="2.56375851" rx="1.28187926"></rect>
                        <rect id="Rectangle-7" fill="#FFFFFF" x="3.05642633" y="28.8583577" width="22.7048813" height="2.56375851" rx="1.28187926"></rect>
                    </g>
                    <g id="Group-Copy-4" transform="translate(105.500000, 274.000000) rotate(140.000000) translate(-105.500000, -274.000000) translate(90.000000, 259.000000)">
                        <rect id="Rectangle-6" fill="#2B63A5" x="0" y="0" width="30.5418719" height="30" rx="7.168"></rect>
                        <rect id="Rectangle-7" fill="#FFFFFF" x="2.42946708" y="14" width="12.8414689" height="2.02401988" rx="1.01200994"></rect>
                        <rect id="Rectangle-7" fill="#FFFFFF" x="17.700403" y="14" width="9.71786834" height="2.02401988" rx="1.01200994"></rect>
                        <rect id="Rectangle-7" fill="#FFFFFF" x="2.42946708" y="18.5" width="7.63546798" height="2.02401988" rx="1.01200994"></rect>
                        <rect id="Rectangle-7" fill="#FFFFFF" x="12.4944021" y="18.5" width="14.9238692" height="2.02401988" rx="1.01200994"></rect>
                        <rect id="Rectangle-7" fill="#FFFFFF" x="22.5593372" y="22.7829139" width="4.85893417" height="2.02401988" rx="1.01200994"></rect>
                        <rect id="Rectangle-7" fill="#FFFFFF" x="2.42946708" y="22.7829139" width="18.0474698" height="2.02401988" rx="1.01200994"></rect>
                    </g>
                    <g id="Group-Copy-4" transform="translate(317.150831, 165.089203) rotate(140.000000) translate(-317.150831, -165.089203) translate(297.650831, 146.089203)">
                        <rect id="Rectangle-6" fill="#2B63A5" x="-2.84217094e-14" y="0" width="38.4236453" height="38" rx="8.96"></rect>
                        <rect id="Rectangle-7" fill="#FFFFFF" x="3.05642633" y="17.7333333" width="16.1553963" height="2.56375851" rx="1.28187926"></rect>
                        <rect id="Rectangle-7" fill="#FFFFFF" x="22.268249" y="17.7333333" width="12.2257053" height="2.56375851" rx="1.28187926"></rect>
                        <rect id="Rectangle-7" fill="#FFFFFF" x="3.05642633" y="23.4333333" width="9.60591133" height="2.56375851" rx="1.28187926"></rect>
                        <rect id="Rectangle-7" fill="#FFFFFF" x="15.718764" y="23.4333333" width="18.7751903" height="2.56375851" rx="1.28187926"></rect>
                        <rect id="Rectangle-7" fill="#FFFFFF" x="28.3811017" y="28.8583577" width="6.11285266" height="2.56375851" rx="1.28187926"></rect>
                        <rect id="Rectangle-7" fill="#FFFFFF" x="3.05642633" y="28.8583577" width="22.7048813" height="2.56375851" rx="1.28187926"></rect>
                    </g>
                    <g id="Group-Copy-8" transform="translate(145.500000, 19.500000) rotate(181.000000) translate(-145.500000, -19.500000) translate(134.000000, 8.000000)">
                        <rect id="Rectangle-6" fill="#2B63A5" x="-2.84217094e-14" y="-5.68434189e-14" width="22.6600985" height="23" rx="5.376"></rect>
                        <rect id="Rectangle-7" fill="#FFFFFF" x="1.80250784" y="10.7333333" width="9.52754142" height="1.55174857" rx="0.775874287"></rect>
                        <rect id="Rectangle-7" fill="#FFFFFF" x="13.1325571" y="10.7333333" width="7.21003135" height="1.55174857" rx="0.775874287"></rect>
                        <rect id="Rectangle-7" fill="#FFFFFF" x="1.80250784" y="14.1833333" width="5.66502463" height="1.55174857" rx="0.775874287"></rect>
                        <rect id="Rectangle-7" fill="#FFFFFF" x="9.2700403" y="14.1833333" width="11.0725481" height="1.55174857" rx="0.775874287"></rect>
                        <rect id="Rectangle-7" fill="#FFFFFF" x="16.7375728" y="17.4669007" width="3.60501567" height="1.55174857" rx="0.775874287"></rect>
                        <rect id="Rectangle-7" fill="#FFFFFF" x="1.80250784" y="17.4669007" width="13.3900582" height="1.55174857" rx="0.775874287"></rect>
                    </g>
                    <g id="Group-Copy-9" transform="translate(336.500000, 19.000000) rotate(-15.000000) translate(-336.500000, -19.000000) translate(321.000000, 4.000000)">
                        <rect id="Rectangle-6" fill="#2B63A5" x="0" y="0" width="30.5418719" height="30" rx="7.168"></rect>
                        <rect id="Rectangle-7" fill="#FFFFFF" x="2.42946708" y="14" width="12.8414689" height="2.02401988" rx="1.01200994"></rect>
                        <rect id="Rectangle-7" fill="#FFFFFF" x="17.700403" y="14" width="9.71786834" height="2.02401988" rx="1.01200994"></rect>
                        <rect id="Rectangle-7" fill="#FFFFFF" x="2.42946708" y="18.5" width="7.63546798" height="2.02401988" rx="1.01200994"></rect>
                        <rect id="Rectangle-7" fill="#FFFFFF" x="12.4944021" y="18.5" width="14.9238692" height="2.02401988" rx="1.01200994"></rect>
                        <rect id="Rectangle-7" fill="#FFFFFF" x="22.5593372" y="22.7829139" width="4.85893417" height="2.02401988" rx="1.01200994"></rect>
                        <rect id="Rectangle-7" fill="#FFFFFF" x="2.42946708" y="22.7829139" width="18.0474698" height="2.02401988" rx="1.01200994"></rect>
                    </g>
                    <g id="Group-Copy-10" transform="translate(236.274286, 60.899577) rotate(193.000000) translate(-236.274286, -60.899577) translate(216.774286, 41.899577)">
                        <rect id="Rectangle-6" fill="#2B63A5" x="-5.68434189e-14" y="4.97379915e-14" width="38.4236453" height="38" rx="8.96"></rect>
                        <rect id="Rectangle-7" fill="#FFFFFF" x="3.05642633" y="17.7333333" width="16.1553963" height="2.56375851" rx="1.28187926"></rect>
                        <rect id="Rectangle-7" fill="#FFFFFF" x="22.268249" y="17.7333333" width="12.2257053" height="2.56375851" rx="1.28187926"></rect>
                        <rect id="Rectangle-7" fill="#FFFFFF" x="3.05642633" y="23.4333333" width="9.60591133" height="2.56375851" rx="1.28187926"></rect>
                        <rect id="Rectangle-7" fill="#FFFFFF" x="15.718764" y="23.4333333" width="18.7751903" height="2.56375851" rx="1.28187926"></rect>
                        <rect id="Rectangle-7" fill="#FFFFFF" x="28.3811017" y="28.8583577" width="6.11285266" height="2.56375851" rx="1.28187926"></rect>
                        <rect id="Rectangle-7" fill="#FFFFFF" x="3.05642633" y="28.8583577" width="22.7048813" height="2.56375851" rx="1.28187926"></rect>
                    </g>
                    <g id="Group-Copy-11" transform="translate(398.500000, 100.000000) rotate(13.000000) translate(-398.500000, -100.000000) translate(381.000000, 83.000000)">
                        <rect id="Rectangle-6" fill="#2B63A5" x="0" y="0" width="34.4827586" height="34" rx="8.064"></rect>
                        <rect id="Rectangle-7" fill="#FFFFFF" x="2.74294671" y="15.8666667" width="14.4984326" height="2.2938892" rx="1.1469446"></rect>
                        <rect id="Rectangle-7" fill="#FFFFFF" x="19.984326" y="15.8666667" width="10.9717868" height="2.2938892" rx="1.1469446"></rect>
                        <rect id="Rectangle-7" fill="#FFFFFF" x="2.74294671" y="20.9666667" width="8.62068966" height="2.2938892" rx="1.1469446"></rect>
                        <rect id="Rectangle-7" fill="#FFFFFF" x="14.1065831" y="20.9666667" width="16.8495298" height="2.2938892" rx="1.1469446"></rect>
                        <rect id="Rectangle-7" fill="#FFFFFF" x="25.4702194" y="25.8206358" width="5.48589342" height="2.2938892" rx="1.1469446"></rect>
                        <rect id="Rectangle-7" fill="#FFFFFF" x="2.74294671" y="25.8206358" width="20.3761755" height="2.2938892" rx="1.1469446"></rect>
                    </g>
                    <path d="M0.943597387,259.511016 C0.943597387,259.511016 33.2123276,251.275355 53.5,254 C93.9316021,259.429985 129.03404,289.465132 153.5,289 C206.020996,288.001502 226.055635,265.857701 282,260.5 C337.944365,255.142299 357.709955,231.978267 420,254 C482.290045,276.021733 487.5,301.5 487.5,301.5 L0.943597387,301.5 L0.943597387,259.511016 Z" id="Path-4" fill="#4A90E2"></path>
                    <g id="handpick" transform="translate(1.000000, 62.000000)">
                        <path d="M89.0486106,72.3089055 C89.0486106,72.3089055 101.510302,81.1162181 110.25075,99.5285735 C110.749586,100.579407 114.008478,110.116766 115.654878,116.37344 C117.301277,122.630115 123.223743,131.075517 127.245273,128.537297 C131.266803,125.999078 121.20251,122.246062 121.659465,115.170235 C122.116419,108.094409 131.076682,94.7033107 137.871849,91.7077426 C152.883316,85.0901164 154.684692,97.122164 157.086527,104.942995 C159.488361,112.763826 155.885609,118.178247 154.684692,122.991066 C153.483775,127.803885 155.855488,131.443678 161.890196,125.397476 C163.691572,123.592669 167.294324,121.186259 168.495242,112.763826 C169.696159,104.341393 165.492948,91.7077426 165.492948,91.7077426 C165.492948,91.7077426 199.702106,92.3764487 205.81203,89.3364897 C209.453643,87.5246251 214.428657,82.3013832 207.604942,80.8414604 C190.713886,77.2276459 171.746694,79.045133 171.746694,79.045133 C171.746694,79.045133 200.915658,72.124742 205.81203,68.042628 C208.625087,65.6973776 205.936274,59.9520518 199.719093,61.0260213 C186.720478,63.2714305 163.230361,63.7763505 163.230361,63.7763505 C163.230361,63.7763505 181.831827,54.5701728 185.86588,49.8548135 C189.899932,45.1394542 186.411728,42.4568478 181.705333,43.5795524 C176.998938,44.702257 142.835982,56.815582 142.835982,56.815582 C142.835982,56.815582 136.336675,59.0609912 133.199078,56.815582 C130.061481,54.5701728 89.0486106,41.1731429 89.0486106,41.1731429 L0.697039637,1.03606912 L0.697039637,49.8548135" id="Path-5" fill="#EBB17E"></path>
                        <g id="Group-Copy-7" transform="translate(143.500000, 134.000000) rotate(-31.000000) translate(-143.500000, -134.000000) translate(120.000000, 111.000000)">
                            <rect id="Rectangle-6" fill="#F05040" x="5.68434189e-14" y="-1.13686838e-13" width="46.3054187" height="46" rx="10.752"></rect>
                            <rect id="Rectangle-7" fill="#FFFFFF" x="3.68338558" y="21.4666667" width="19.4693238" height="3.10349715" rx="1.55174857"></rect>
                            <rect id="Rectangle-7" fill="#FFFFFF" x="26.8360949" y="21.4666667" width="14.7335423" height="3.10349715" rx="1.55174857"></rect>
                            <rect id="Rectangle-7" fill="#FFFFFF" x="3.68338558" y="28.3666667" width="11.5763547" height="3.10349715" rx="1.55174857"></rect>
                            <rect id="Rectangle-7" fill="#FFFFFF" x="18.9431258" y="28.3666667" width="22.6265114" height="3.10349715" rx="1.55174857"></rect>
                            <rect id="Rectangle-7" fill="#FFFFFF" x="34.2028661" y="34.9338014" width="7.36677116" height="3.10349715" rx="1.55174857"></rect>
                            <rect id="Rectangle-7" fill="#FFFFFF" x="3.68338558" y="34.9338014" width="27.3622929" height="3.10349715" rx="1.55174857"></rect>
                        </g>
                        <path d="M89.0486106,72.2752058 C89.0486106,72.2752058 101.510302,81.078776 110.25075,99.4833077 C110.749586,100.533695 112.807561,111.269694 114.45396,117.52371 C116.10036,123.777726 123.223743,131.016846 127.245273,128.479705 C131.266803,125.942565 124.805262,120.988449 125.262217,113.91563 C125.719171,106.84281 128.074389,99.4708693 134.869556,96.476574 C149.881023,89.8617598 154.684692,97.0779207 157.086527,104.895428 C159.488361,112.712936 167.294324,121.131791 168.495242,112.712936 C169.696159,104.294082 165.492948,91.6658 165.492948,91.6658 C165.492948,91.6658 199.702106,92.334222 205.81203,89.2955547 C209.453643,87.48446 214.428657,82.2634375 207.604942,80.8041351 C190.713886,77.1918561 171.746694,79.008571 171.746694,79.008571 C171.746694,79.008571 200.915658,72.0911205 205.81203,68.0107411 C208.625087,65.6664873 205.936274,59.9236028 199.719093,60.9971159 C186.720478,63.241571 163.230361,63.7462764 163.230361,63.7462764 C163.230361,63.7462764 181.831827,54.5440106 185.86588,49.8306549 C189.899932,45.1172992 186.411728,42.4358327 181.705333,43.5580603 C176.998938,44.6802878 142.835982,56.7884657 142.835982,56.7884657 C142.835982,56.7884657 136.336675,59.0329208 133.199078,56.7884657 C130.061481,54.5440106 89.0486106,41.1526733 89.0486106,41.1526733 L0.588253791,0.989974215 L0.588253791,49.8306549" id="Path-5" fill="#EBB17E"></path>
                    </g>
                </g>
            </g>
        </g>
    </g>
</svg>