<?xml version="1.0" encoding="UTF-8"?>
<svg width="478px" height="296px" viewBox="0 0 478 296" version="1.1" xmlns="http://www.w3.org/2000/svg" xmlns:xlink="http://www.w3.org/1999/xlink">
    <!-- Generator: Sketch 49.3 (51167) - http://www.bohemiancoding.com/sketch -->
    <title>Group 10</title>
    <desc>Created with Sketch.</desc>
    <defs>
        <rect id="path-1" x="89" y="1.42108547e-14" width="347" height="234" rx="5"></rect>
        <filter x="-4.2%" y="-5.3%" width="108.4%" height="112.4%" filterUnits="objectBoundingBox" id="filter-3">
            <feOffset dx="0" dy="2" in="SourceAlpha" result="shadowOffsetOuter1"></feOffset>
            <feGaussianBlur stdDeviation="4.5" in="shadowOffsetOuter1" result="shadowBlurOuter1"></feGaussianBlur>
            <feColorMatrix values="0 0 0 0 0   0 0 0 0 0   0 0 0 0 0  0 0 0 0.0986186594 0" type="matrix" in="shadowBlurOuter1"></feColorMatrix>
        </filter>
        <rect id="path-4" x="-6.15278471" y="35.6948606" width="146" height="12.019285" rx="4"></rect>
    </defs>
    <g id="Page-1" stroke="none" stroke-width="1" fill="none" fill-rule="evenodd">
        <g id="Desktop-HD" transform="translate(-201.000000, -1465.000000)">
            <g id="card-3" transform="translate(201.000000, 1432.000000)">
                <g id="Group-10" transform="translate(0.000000, 40.000000)">
                    <g id="browser">
                        <path d="M402.809044,289.075497 C402.809044,289.075497 402.898694,113.496342 402.809044,113.395519 C360.588042,65.9129121 299.037289,36 230.5,36 C103.198365,36 0,139.198365 0,266.5 C0,274.117109 0.36947514,281.647923 1.09148133,289.075497 C1.09647069,289.126825 402.809044,289.075497 402.809044,289.075497 Z" id="Oval-3" fill="#FFDB3C" opacity="0.200000003" transform="translate(201.424444, 162.549155) scale(-1, 1) translate(-201.424444, -162.549155) "></path>
                        <mask id="mask-2" fill="white">
                            <use xlink:href="#path-1"></use>
                        </mask>
                        <g id="Rectangle-22">
                            <use fill="black" fill-opacity="1" filter="url(#filter-3)" xlink:href="#path-1"></use>
                            <use fill="#FFFFFF" fill-rule="evenodd" xlink:href="#path-1"></use>
                        </g>
                        <rect id="Rectangle-22" fill="#4A4A4A" mask="url(#mask-2)" x="89" y="1.77635684e-15" width="347" height="16"></rect>
                        <g id="Group-7" mask="url(#mask-2)">
                            <g transform="translate(112.000000, 33.000000)" id="Rectangle-23">
                                <rect fill="#B8B8B8" x="0" y="0" width="300" height="130"></rect>
                                <rect fill="#F1F1F1" transform="translate(150.000000, 161.000000) scale(1, -1) translate(-150.000000, -161.000000) " x="0" y="142" width="300" height="38"></rect>
                            </g>
                        </g>
                    </g>
                    <g id="handpick" transform="translate(33.000000, 95.000000)">
                        <g id="Group-Copy-7" transform="translate(223.652095, 28.298542) rotate(-15.000000) translate(-223.652095, -28.298542) translate(200.152095, 5.298542)">
                            <rect id="Rectangle-6" fill="#F05040" x="0" y="0" width="46.3054187" height="46" rx="10.752"></rect>
                            <rect id="Rectangle-7" fill="#FFFFFF" x="3.68338558" y="21.4666667" width="19.4693238" height="3.10349715" rx="1.55174857"></rect>
                            <rect id="Rectangle-7" fill="#FFFFFF" x="26.8360949" y="21.4666667" width="14.7335423" height="3.10349715" rx="1.55174857"></rect>
                            <rect id="Rectangle-7" fill="#FFFFFF" x="3.68338558" y="28.3666667" width="11.5763547" height="3.10349715" rx="1.55174857"></rect>
                            <rect id="Rectangle-7" fill="#FFFFFF" x="18.9431258" y="28.3666667" width="22.6265114" height="3.10349715" rx="1.55174857"></rect>
                            <rect id="Rectangle-7" fill="#FFFFFF" x="34.2028661" y="34.9338014" width="7.36677116" height="3.10349715" rx="1.55174857"></rect>
                            <rect id="Rectangle-7" fill="#FFFFFF" x="3.68338558" y="34.9338014" width="27.3622929" height="3.10349715" rx="1.55174857"></rect>
                        </g>
                        <g id="Group-Copy-7" transform="translate(167.000000, 36.500000) rotate(-360.000000) translate(-167.000000, -36.500000) translate(148.000000, 18.000000)">
                            <rect id="Rectangle-6" fill="#FFDB3C" x="0" y="3.55271368e-15" width="37.4384236" height="37" rx="8.6016"></rect>
                            <rect id="Rectangle-7" fill="#FFFFFF" x="2.97805643" y="17.2666667" width="15.7411554" height="2.49629118" rx="1.24814559"></rect>
                            <rect id="Rectangle-7" fill="#FFFFFF" x="21.6972682" y="17.2666667" width="11.9122257" height="2.49629118" rx="1.24814559"></rect>
                            <rect id="Rectangle-7" fill="#FFFFFF" x="2.97805643" y="22.8166667" width="9.35960591" height="2.49629118" rx="1.24814559"></rect>
                            <rect id="Rectangle-7" fill="#FFFFFF" x="15.3157188" y="22.8166667" width="18.2937752" height="2.49629118" rx="1.24814559"></rect>
                            <rect id="Rectangle-7" fill="#FFFFFF" x="27.6533811" y="28.0989272" width="5.95611285" height="2.49629118" rx="1.24814559"></rect>
                            <rect id="Rectangle-7" fill="#FFFFFF" x="2.97805643" y="28.0989272" width="22.1227049" height="2.49629118" rx="1.24814559"></rect>
                        </g>
                        <g id="Group-Copy-20" transform="translate(379.445803, 35.500000) rotate(-360.000000) translate(-379.445803, -35.500000) translate(360.445803, 17.000000)">
                            <rect id="Rectangle-6" fill="#FFDB3C" x="0" y="3.55271368e-15" width="37.4384236" height="37" rx="8.6016"></rect>
                            <rect id="Rectangle-7" fill="#FFFFFF" x="2.97805643" y="17.2666667" width="15.7411554" height="2.49629118" rx="1.24814559"></rect>
                            <rect id="Rectangle-7" fill="#FFFFFF" x="21.6972682" y="17.2666667" width="11.9122257" height="2.49629118" rx="1.24814559"></rect>
                            <rect id="Rectangle-7" fill="#FFFFFF" x="2.97805643" y="22.8166667" width="9.35960591" height="2.49629118" rx="1.24814559"></rect>
                            <rect id="Rectangle-7" fill="#FFFFFF" x="15.3157188" y="22.8166667" width="18.2937752" height="2.49629118" rx="1.24814559"></rect>
                            <rect id="Rectangle-7" fill="#FFFFFF" x="27.6533811" y="28.0989272" width="5.95611285" height="2.49629118" rx="1.24814559"></rect>
                            <rect id="Rectangle-7" fill="#FFFFFF" x="2.97805643" y="28.0989272" width="22.1227049" height="2.49629118" rx="1.24814559"></rect>
                        </g>
                        <g id="Group-Copy-20" transform="translate(426.445803, 35.500000) rotate(-360.000000) translate(-426.445803, -35.500000) translate(407.445803, 17.000000)">
                            <rect id="Rectangle-6" fill="#FFDB3C" x="0" y="3.55271368e-15" width="37.4384236" height="37" rx="8.6016"></rect>
                            <rect id="Rectangle-7" fill="#FFFFFF" x="2.97805643" y="17.2666667" width="15.7411554" height="2.49629118" rx="1.24814559"></rect>
                            <rect id="Rectangle-7" fill="#FFFFFF" x="21.6972682" y="17.2666667" width="11.9122257" height="2.49629118" rx="1.24814559"></rect>
                            <rect id="Rectangle-7" fill="#FFFFFF" x="2.97805643" y="22.8166667" width="9.35960591" height="2.49629118" rx="1.24814559"></rect>
                            <rect id="Rectangle-7" fill="#FFFFFF" x="15.3157188" y="22.8166667" width="18.2937752" height="2.49629118" rx="1.24814559"></rect>
                            <rect id="Rectangle-7" fill="#FFFFFF" x="27.6533811" y="28.0989272" width="5.95611285" height="2.49629118" rx="1.24814559"></rect>
                            <rect id="Rectangle-7" fill="#FFFFFF" x="2.97805643" y="28.0989272" width="22.1227049" height="2.49629118" rx="1.24814559"></rect>
                        </g>
                        <g id="Group-Copy-18" transform="translate(117.000000, 36.500000) rotate(-360.000000) translate(-117.000000, -36.500000) translate(98.000000, 18.000000)">
                            <rect id="Rectangle-6" fill="#FFDB3C" x="0" y="3.55271368e-15" width="37.4384236" height="37" rx="8.6016"></rect>
                            <rect id="Rectangle-7" fill="#FFFFFF" x="2.97805643" y="17.2666667" width="15.7411554" height="2.49629118" rx="1.24814559"></rect>
                            <rect id="Rectangle-7" fill="#FFFFFF" x="21.6972682" y="17.2666667" width="11.9122257" height="2.49629118" rx="1.24814559"></rect>
                            <rect id="Rectangle-7" fill="#FFFFFF" x="2.97805643" y="22.8166667" width="9.35960591" height="2.49629118" rx="1.24814559"></rect>
                            <rect id="Rectangle-7" fill="#FFFFFF" x="15.3157188" y="22.8166667" width="18.2937752" height="2.49629118" rx="1.24814559"></rect>
                            <rect id="Rectangle-7" fill="#FFFFFF" x="27.6533811" y="28.0989272" width="5.95611285" height="2.49629118" rx="1.24814559"></rect>
                            <rect id="Rectangle-7" fill="#FFFFFF" x="2.97805643" y="28.0989272" width="22.1227049" height="2.49629118" rx="1.24814559"></rect>
                        </g>
                        <g id="Group-Copy-21" transform="translate(329.445803, 35.500000) rotate(-360.000000) translate(-329.445803, -35.500000) translate(310.445803, 17.000000)">
                            <rect id="Rectangle-6" fill="#FFDB3C" x="0" y="3.55271368e-15" width="37.4384236" height="37" rx="8.6016"></rect>
                            <rect id="Rectangle-7" fill="#FFFFFF" x="2.97805643" y="17.2666667" width="15.7411554" height="2.49629118" rx="1.24814559"></rect>
                            <rect id="Rectangle-7" fill="#FFFFFF" x="21.6972682" y="17.2666667" width="11.9122257" height="2.49629118" rx="1.24814559"></rect>
                            <rect id="Rectangle-7" fill="#FFFFFF" x="2.97805643" y="22.8166667" width="9.35960591" height="2.49629118" rx="1.24814559"></rect>
                            <rect id="Rectangle-7" fill="#FFFFFF" x="15.3157188" y="22.8166667" width="18.2937752" height="2.49629118" rx="1.24814559"></rect>
                            <rect id="Rectangle-7" fill="#FFFFFF" x="27.6533811" y="28.0989272" width="5.95611285" height="2.49629118" rx="1.24814559"></rect>
                            <rect id="Rectangle-7" fill="#FFFFFF" x="2.97805643" y="28.0989272" width="22.1227049" height="2.49629118" rx="1.24814559"></rect>
                        </g>
                        <g id="Group-Copy-19" transform="translate(68.000000, 36.500000) rotate(-360.000000) translate(-68.000000, -36.500000) translate(49.000000, 18.000000)">
                            <rect id="Rectangle-6" fill="#FFDB3C" x="-3.55271368e-15" y="3.55271368e-15" width="37.4384236" height="37" rx="8.6016"></rect>
                            <rect id="Rectangle-7" fill="#FFFFFF" x="2.97805643" y="17.2666667" width="15.7411554" height="2.49629118" rx="1.24814559"></rect>
                            <rect id="Rectangle-7" fill="#FFFFFF" x="21.6972682" y="17.2666667" width="11.9122257" height="2.49629118" rx="1.24814559"></rect>
                            <rect id="Rectangle-7" fill="#FFFFFF" x="2.97805643" y="22.8166667" width="9.35960591" height="2.49629118" rx="1.24814559"></rect>
                            <rect id="Rectangle-7" fill="#FFFFFF" x="15.3157188" y="22.8166667" width="18.2937752" height="2.49629118" rx="1.24814559"></rect>
                            <rect id="Rectangle-7" fill="#FFFFFF" x="27.6533811" y="28.0989272" width="5.95611285" height="2.49629118" rx="1.24814559"></rect>
                            <rect id="Rectangle-7" fill="#FFFFFF" x="2.97805643" y="28.0989272" width="22.1227049" height="2.49629118" rx="1.24814559"></rect>
                        </g>
                        <g id="Group-Copy-19" transform="translate(19.000000, 36.500000) rotate(-360.000000) translate(-19.000000, -36.500000) translate(0.000000, 18.000000)">
                            <rect id="Rectangle-6" fill="#FFDB3C" x="-3.55271368e-15" y="3.55271368e-15" width="37.4384236" height="37" rx="8.6016"></rect>
                            <rect id="Rectangle-7" fill="#FFFFFF" x="2.97805643" y="17.2666667" width="15.7411554" height="2.49629118" rx="1.24814559"></rect>
                            <rect id="Rectangle-7" fill="#FFFFFF" x="21.6972682" y="17.2666667" width="11.9122257" height="2.49629118" rx="1.24814559"></rect>
                            <rect id="Rectangle-7" fill="#FFFFFF" x="2.97805643" y="22.8166667" width="9.35960591" height="2.49629118" rx="1.24814559"></rect>
                            <rect id="Rectangle-7" fill="#FFFFFF" x="15.3157188" y="22.8166667" width="18.2937752" height="2.49629118" rx="1.24814559"></rect>
                            <rect id="Rectangle-7" fill="#FFFFFF" x="27.6533811" y="28.0989272" width="5.95611285" height="2.49629118" rx="1.24814559"></rect>
                            <rect id="Rectangle-7" fill="#FFFFFF" x="2.97805643" y="28.0989272" width="22.1227049" height="2.49629118" rx="1.24814559"></rect>
                        </g>
                        <g id="Group-Copy-22" transform="translate(280.445803, 35.500000) rotate(-360.000000) translate(-280.445803, -35.500000) translate(261.445803, 17.000000)">
                            <rect id="Rectangle-6" fill="#FFDB3C" x="0" y="3.55271368e-15" width="37.4384236" height="37" rx="8.6016"></rect>
                            <rect id="Rectangle-7" fill="#FFFFFF" x="2.97805643" y="17.2666667" width="15.7411554" height="2.49629118" rx="1.24814559"></rect>
                            <rect id="Rectangle-7" fill="#FFFFFF" x="21.6972682" y="17.2666667" width="11.9122257" height="2.49629118" rx="1.24814559"></rect>
                            <rect id="Rectangle-7" fill="#FFFFFF" x="2.97805643" y="22.8166667" width="9.35960591" height="2.49629118" rx="1.24814559"></rect>
                            <rect id="Rectangle-7" fill="#FFFFFF" x="15.3157188" y="22.8166667" width="18.2937752" height="2.49629118" rx="1.24814559"></rect>
                            <rect id="Rectangle-7" fill="#FFFFFF" x="27.6533811" y="28.0989272" width="5.95611285" height="2.49629118" rx="1.24814559"></rect>
                            <rect id="Rectangle-7" fill="#FFFFFF" x="2.97805643" y="28.0989272" width="22.1227049" height="2.49629118" rx="1.24814559"></rect>
                        </g>
                    </g>
                    <g id="Group-9" transform="translate(263.000000, 140.000000)">
                        <path d="M79.7234364,88.2416351 C111.229994,103.050169 117.95652,122.403999 123.62781,128.755098 C129.2991,135.106198 144.413015,138.937201 145.986456,134.926884 C147.559897,130.916566 138.195457,129.287706 134.443144,127.245612 C130.690831,125.203517 127.605813,119.027961 133.003244,115.935143 C139.82222,112.027757 145.518236,114.561446 148.716388,122.687706 C152.081944,131.239325 155.744134,138.132944 158.741349,135.204726 C163.084793,130.96127 155.258555,108.636557 155.258555,108.636557 C155.258555,108.636557 159.992368,118.931432 160.397118,123.423318 C160.679263,126.554543 163.890592,123.414874 165.374063,119.73653 C169.552887,109.374921 161.43792,95.3237523 161.43792,95.3237523 C161.43792,95.3237523 166.082944,103.03129 166.64888,106.302348 C167.214817,109.573405 170.142354,106.293904 170.134421,102.575258 C170.126489,98.8566118 169.41018,95.0115629 168.436612,92.7620857 C164.996032,84.8124587 157.443147,81.5582893 157.443147,81.5582893 C157.443147,81.5582893 167.304739,86.2199711 168.428679,89.0434399 C169.054325,90.6151339 172.307956,88.3634689 171.493734,84.7223799 C170.679512,81.0812909 166.567946,77.6611957 163.910527,76.5962502 C157.916527,74.1941884 126.449063,74.3134713 123.348784,71.9527656 C120.248506,69.5920598 79.7234364,55.5071236 79.7234364,55.5071236 L64.9173558,47.8523414 L60.2306499,84.0533193" id="Path-5-Copy" fill="#EBB17E" transform="translate(115.927163, 92.210290) scale(-1, 1) rotate(-98.000000) translate(-115.927163, -92.210290) "></path>
                        <g id="Group-8" transform="translate(17.000000, 16.000000)">
                            <mask id="mask-5" fill="white">
                                <use xlink:href="#path-4"></use>
                            </mask>
                            <use id="Rectangle-24" fill="#4A4A4A" transform="translate(66.847215, 41.704503) rotate(30.000000) translate(-66.847215, -41.704503) " xlink:href="#path-4"></use>
                            <rect id="Rectangle-25" fill="#FFDB3C" mask="url(#mask-5)" transform="translate(123.720494, 74.392624) rotate(29.000000) translate(-123.720494, -74.392624) " x="122.720494" y="67.6876239" width="2" height="13.4099998"></rect>
                            <rect id="Rectangle-25" fill="#FFDB3C" mask="url(#mask-5)" transform="translate(120.720494, 72.392624) rotate(29.000000) translate(-120.720494, -72.392624) " x="119.720494" y="65.6876239" width="2" height="13.4099998"></rect>
                            <rect id="Rectangle-25" fill="#FFDB3C" mask="url(#mask-5)" transform="translate(7.662895, 7.864382) rotate(29.000000) translate(-7.662895, -7.864382) " x="1.47478086" y="1.15938257" width="12.3762289" height="13.4099998"></rect>
                        </g>
                        <path d="M79.702381,88.2174137 C111.208939,103.025947 117.935464,122.379777 123.606755,128.730877 C129.278045,135.081976 138.174401,129.263485 134.422089,127.22139 C130.669776,125.179296 127.584757,119.00374 132.982189,115.910922 C139.801165,112.003535 145.49718,114.537225 148.695333,122.663485 C152.060888,131.215103 155.723078,138.108722 158.720294,135.180504 C163.063738,130.937049 155.2375,108.612336 155.2375,108.612336 C155.2375,108.612336 159.971313,118.90721 160.376063,123.399096 C160.658207,126.530321 163.869536,123.390652 165.353008,119.712309 C169.531832,109.350699 161.416865,95.2995309 161.416865,95.2995309 C161.416865,95.2995309 166.061889,103.007069 166.627825,106.278126 C167.193762,109.549184 170.121299,106.269682 170.113366,102.551036 C170.105433,98.8323905 169.389125,94.9873415 168.415556,92.7378643 C164.974976,84.7882373 157.422092,81.534068 157.422092,81.534068 C157.422092,81.534068 167.283683,86.1957497 168.407624,89.0192185 C169.033269,90.5909125 172.2869,88.3392475 171.472679,84.6981585 C170.658457,81.0570695 166.54689,77.6369743 163.889472,76.5720288 C157.895472,74.169967 126.428007,74.2892499 123.327729,71.9285442 C120.22745,69.5678384 79.702381,55.4829022 79.702381,55.4829022 L65.1845744,48.6302771 L60.1166583,83.5436037" id="Path-5-Copy" fill="#EBB17E" transform="translate(115.859640, 92.247725) scale(-1, 1) rotate(-98.000000) translate(-115.859640, -92.247725) "></path>
                        <path d="M22.8266718,2.00276013 C22.8266718,0.896666251 23.7144014,0 24.8266718,0 C25.9312413,0 26.8266718,0.893542647 26.8266718,2.00276013 L26.8266718,10.9972399 C26.8266718,12.1033337 25.9389421,13 24.8266718,13 C23.7221023,13 22.8266718,12.1064574 22.8266718,10.9972399 L22.8266718,2.00276013 Z M47.0313691,16.682332 C48.0833269,16.3405302 49.2104307,16.9077262 49.5541412,17.9655581 C49.8954719,19.0160662 49.3223656,20.143791 48.2674371,20.4865581 L39.7131785,23.2660052 C38.6612207,23.607807 37.5341169,23.040611 37.1904065,21.9827791 C36.8490757,20.9322711 37.422182,19.8045462 38.4771105,19.4617791 L47.0313691,16.682332 Z M40.5499294,44.2386044 C41.2000751,45.1334531 41.0089339,46.3806657 40.1090883,47.0344419 C39.2154728,47.6836915 37.9658431,47.4871212 37.3138615,46.5897454 L32.0270389,39.3130584 C31.3768932,38.4182097 31.5680344,37.170997 32.46788,36.5172209 C33.3614955,35.8679713 34.6111252,36.0645416 35.2631069,36.9619174 L40.5499294,44.2386044 Z M12.339482,46.5897454 C11.6893364,47.4845941 10.4441008,47.688218 9.54425519,47.0344419 C8.6506397,46.3851922 8.4514324,45.1359802 9.10341407,44.2386044 L14.3902366,36.9619174 C15.0403823,36.0670687 16.2856179,35.8634448 17.1854635,36.5172209 C18.079079,37.1664706 18.2782863,38.4156826 17.6263046,39.3130584 L12.339482,46.5897454 Z M1.38590641,20.4865581 C0.333948623,20.1447563 -0.244508112,19.0233901 0.0992023301,17.9655581 C0.440533077,16.9150501 1.56704588,16.339565 2.62197439,16.682332 L11.176233,19.4617791 C12.2281907,19.8035809 12.8066475,20.9249471 12.462937,21.9827791 C12.1216063,23.0332871 10.9950935,23.6087722 9.94016498,23.2660052 L1.38590641,20.4865581 Z" id="Rectangle-26" fill="#FFDB3C"></path>
                    </g>
                </g>
            </g>
        </g>
    </g>
</svg>