<?xml version="1.0" encoding="UTF-8"?>
<svg width="455px" height="329px" viewBox="0 0 455 329" version="1.1" xmlns="http://www.w3.org/2000/svg" xmlns:xlink="http://www.w3.org/1999/xlink">
    <!-- Generator: Sketch 49.3 (51167) - http://www.bohemiancoding.com/sketch -->
    <title>illustration</title>
    <desc>Created with Sketch.</desc>
    <defs>
        <rect id="path-1" x="0" y="1.42108547e-14" width="347" height="234" rx="5"></rect>
        <filter x="-4.2%" y="-5.3%" width="108.4%" height="112.4%" filterUnits="objectBoundingBox" id="filter-3">
            <feOffset dx="0" dy="2" in="SourceAlpha" result="shadowOffsetOuter1"></feOffset>
            <feGaussianBlur stdDeviation="4.5" in="shadowOffsetOuter1" result="shadowBlurOuter1"></feGaussianBlur>
            <feColorMatrix values="0 0 0 0 0   0 0 0 0 0   0 0 0 0 0  0 0 0 0.0986186594 0" type="matrix" in="shadowBlurOuter1"></feColorMatrix>
        </filter>
    </defs>
    <g id="Page-1" stroke="none" stroke-width="1" fill="none" fill-rule="evenodd">
        <g id="Desktop-HD" transform="translate(-786.000000, -1062.000000)">
            <g id="card-2" transform="translate(200.000000, 1062.000000)">
                <g id="illustration" transform="translate(595.000000, 0.000000)">
                    <path d="M445.809044,329.075497 C445.809044,329.075497 445.898694,153.496342 445.809044,153.395519 C403.588042,105.912912 342.037289,76 273.5,76 C146.198365,76 43,179.198365 43,306.5 C43,314.117109 43.3694751,321.647923 44.0914813,329.075497 C44.0964707,329.126825 445.809044,329.075497 445.809044,329.075497 Z" id="Oval-3" fill="#D4EBBD"></path>
                    <path d="M400.831756,0.186663615 C400.831756,0.186663615 371.618826,83.8592376 369.25445,166.5 C366.97637,246.12451 394.5,329 394.5,329 L445.560227,329 L445.5,0.186663615 L400.831756,0.186663615 Z" id="Path-6" fill="#7ED321"></path>
                    <g id="Group-Copy-15" transform="translate(407.000000, 215.500000) rotate(-360.000000) translate(-407.000000, -215.500000) translate(388.000000, 197.000000)">
                        <rect id="Rectangle-6" fill="#62AA13" x="0" y="0" width="37.4384236" height="37" rx="8.70912"></rect>
                        <rect id="Rectangle-7" fill="#FFFFFF" x="2.97805643" y="17.2666667" width="15.7411554" height="2.49629118" rx="1.24814559"></rect>
                        <rect id="Rectangle-7" fill="#FFFFFF" x="21.6972682" y="17.2666667" width="11.9122257" height="2.49629118" rx="1.24814559"></rect>
                        <rect id="Rectangle-7" fill="#FFFFFF" x="2.97805643" y="22.8166667" width="9.35960591" height="2.49629118" rx="1.24814559"></rect>
                        <rect id="Rectangle-7" fill="#FFFFFF" x="15.3157188" y="22.8166667" width="18.2937752" height="2.49629118" rx="1.24814559"></rect>
                        <rect id="Rectangle-7" fill="#FFFFFF" x="27.6533811" y="28.0989272" width="5.95611285" height="2.49629118" rx="1.24814559"></rect>
                        <rect id="Rectangle-7" fill="#FFFFFF" x="2.97805643" y="28.0989272" width="22.1227049" height="2.49629118" rx="1.24814559"></rect>
                    </g>
                    <g id="Group-Copy-16" transform="translate(411.000000, 266.500000) rotate(-360.000000) translate(-411.000000, -266.500000) translate(394.000000, 250.000000)">
                        <rect id="Rectangle-6" fill="#62AA13" x="0" y="0" width="33.4975369" height="33" rx="7.74144"></rect>
                        <rect id="Rectangle-7" fill="#FFFFFF" x="2.6645768" y="15.4" width="14.0841917" height="2.22642187" rx="1.11321093"></rect>
                        <rect id="Rectangle-7" fill="#FFFFFF" x="19.4133453" y="15.4" width="10.6583072" height="2.22642187" rx="1.11321093"></rect>
                        <rect id="Rectangle-7" fill="#FFFFFF" x="2.6645768" y="20.35" width="8.37438424" height="2.22642187" rx="1.11321093"></rect>
                        <rect id="Rectangle-7" fill="#FFFFFF" x="13.7035378" y="20.35" width="16.3681146" height="2.22642187" rx="1.11321093"></rect>
                        <rect id="Rectangle-7" fill="#FFFFFF" x="24.7424989" y="25.0612053" width="5.32915361" height="2.22642187" rx="1.11321093"></rect>
                        <rect id="Rectangle-7" fill="#FFFFFF" x="2.6645768" y="25.0612053" width="19.7939991" height="2.22642187" rx="1.11321093"></rect>
                    </g>
                    <g id="Group-Copy-17" transform="translate(421.500000, 311.500000) rotate(-360.000000) translate(-421.500000, -311.500000) translate(407.000000, 297.000000)">
                        <rect id="Rectangle-6" fill="#62AA13" x="0" y="0" width="28.5714286" height="29" rx="6.77376"></rect>
                        <rect id="Rectangle-7" fill="#FFFFFF" x="2.27272727" y="13.5333333" width="12.012987" height="1.95655255" rx="0.978276275"></rect>
                        <rect id="Rectangle-7" fill="#FFFFFF" x="16.5584416" y="13.5333333" width="9.09090909" height="1.95655255" rx="0.978276275"></rect>
                        <rect id="Rectangle-7" fill="#FFFFFF" x="2.27272727" y="17.8833333" width="7.14285714" height="1.95655255" rx="0.978276275"></rect>
                        <rect id="Rectangle-7" fill="#FFFFFF" x="11.6883117" y="17.8833333" width="13.961039" height="1.95655255" rx="0.978276275"></rect>
                        <rect id="Rectangle-7" fill="#FFFFFF" x="21.1038961" y="22.0234835" width="4.54545455" height="1.95655255" rx="0.978276275"></rect>
                        <rect id="Rectangle-7" fill="#FFFFFF" x="2.27272727" y="22.0234835" width="16.8831169" height="1.95655255" rx="0.978276275"></rect>
                    </g>
                    <g id="Group-Copy-12" transform="translate(410.000000, 106.500000) rotate(-360.000000) translate(-410.000000, -106.500000) translate(391.000000, 88.000000)">
                        <rect id="Rectangle-6" fill="#62AA13" x="0" y="0" width="37.4384236" height="37" rx="8.70912"></rect>
                        <rect id="Rectangle-7" fill="#FFFFFF" x="2.97805643" y="17.2666667" width="15.7411554" height="2.49629118" rx="1.24814559"></rect>
                        <rect id="Rectangle-7" fill="#FFFFFF" x="21.6972682" y="17.2666667" width="11.9122257" height="2.49629118" rx="1.24814559"></rect>
                        <rect id="Rectangle-7" fill="#FFFFFF" x="2.97805643" y="22.8166667" width="9.35960591" height="2.49629118" rx="1.24814559"></rect>
                        <rect id="Rectangle-7" fill="#FFFFFF" x="15.3157188" y="22.8166667" width="18.2937752" height="2.49629118" rx="1.24814559"></rect>
                        <rect id="Rectangle-7" fill="#FFFFFF" x="27.6533811" y="28.0989272" width="5.95611285" height="2.49629118" rx="1.24814559"></rect>
                        <rect id="Rectangle-7" fill="#FFFFFF" x="2.97805643" y="28.0989272" width="22.1227049" height="2.49629118" rx="1.24814559"></rect>
                    </g>
                    <g id="Group-Copy-13" transform="translate(418.000000, 56.500000) rotate(-360.000000) translate(-418.000000, -56.500000) translate(401.000000, 40.000000)">
                        <rect id="Rectangle-6" fill="#62AA13" x="0" y="0" width="33.4975369" height="33" rx="7.74144"></rect>
                        <rect id="Rectangle-7" fill="#FFFFFF" x="2.6645768" y="15.4" width="14.0841917" height="2.22642187" rx="1.11321093"></rect>
                        <rect id="Rectangle-7" fill="#FFFFFF" x="19.4133453" y="15.4" width="10.6583072" height="2.22642187" rx="1.11321093"></rect>
                        <rect id="Rectangle-7" fill="#FFFFFF" x="2.6645768" y="20.35" width="8.37438424" height="2.22642187" rx="1.11321093"></rect>
                        <rect id="Rectangle-7" fill="#FFFFFF" x="13.7035378" y="20.35" width="16.3681146" height="2.22642187" rx="1.11321093"></rect>
                        <rect id="Rectangle-7" fill="#FFFFFF" x="24.7424989" y="25.0612053" width="5.32915361" height="2.22642187" rx="1.11321093"></rect>
                        <rect id="Rectangle-7" fill="#FFFFFF" x="2.6645768" y="25.0612053" width="19.7939991" height="2.22642187" rx="1.11321093"></rect>
                    </g>
                    <g id="Group-Copy-14" transform="translate(425.500000, 14.500000) rotate(-360.000000) translate(-425.500000, -14.500000) translate(411.000000, 0.000000)">
                        <rect id="Rectangle-6" fill="#62AA13" x="0" y="0" width="28.5714286" height="29" rx="6.77376"></rect>
                        <rect id="Rectangle-7" fill="#FFFFFF" x="2.27272727" y="13.5333333" width="12.012987" height="1.95655255" rx="0.978276275"></rect>
                        <rect id="Rectangle-7" fill="#FFFFFF" x="16.5584416" y="13.5333333" width="9.09090909" height="1.95655255" rx="0.978276275"></rect>
                        <rect id="Rectangle-7" fill="#FFFFFF" x="2.27272727" y="17.8833333" width="7.14285714" height="1.95655255" rx="0.978276275"></rect>
                        <rect id="Rectangle-7" fill="#FFFFFF" x="11.6883117" y="17.8833333" width="13.961039" height="1.95655255" rx="0.978276275"></rect>
                        <rect id="Rectangle-7" fill="#FFFFFF" x="21.1038961" y="22.0234835" width="4.54545455" height="1.95655255" rx="0.978276275"></rect>
                        <rect id="Rectangle-7" fill="#FFFFFF" x="2.27272727" y="22.0234835" width="16.8831169" height="1.95655255" rx="0.978276275"></rect>
                    </g>
                    <g id="browser" transform="translate(0.000000, 48.000000)">
                        <mask id="mask-2" fill="white">
                            <use xlink:href="#path-1"></use>
                        </mask>
                        <g id="Rectangle-22">
                            <use fill="black" fill-opacity="1" filter="url(#filter-3)" xlink:href="#path-1"></use>
                            <use fill="#FFFFFF" fill-rule="evenodd" xlink:href="#path-1"></use>
                        </g>
                        <rect id="Rectangle-22" fill="#4A4A4A" mask="url(#mask-2)" x="0" y="1.77635684e-15" width="347" height="16"></rect>
                        <g id="Group-7" mask="url(#mask-2)">
                            <g transform="translate(23.000000, 33.000000)" id="Rectangle-23">
                                <rect fill="#B8B8B8" x="0" y="0" width="215" height="130"></rect>
                                <rect fill="#F1F1F1" transform="translate(107.500000, 163.000000) scale(1, -1) translate(-107.500000, -163.000000) " x="0" y="141" width="215" height="44"></rect>
                                <rect fill="#F1F1F1" transform="translate(265.500000, 92.500000) scale(1, -1) translate(-265.500000, -92.500000) " x="225" y="0" width="81" height="185"></rect>
                            </g>
                        </g>
                    </g>
                    <path d="M330.000021,241.505006 C361.506579,256.313539 369.587291,278.013322 371.214108,284.591262 C372.840926,291.169202 378.010644,293.574004 379.684656,292.231238 C381.358668,290.888472 379.600032,285.314725 378.54485,281.970477 C377.489669,278.626229 373.070598,270.530221 378.46803,267.437403 C385.287006,263.530016 395.389816,267.530697 397.228703,275.81478 C399.161898,284.52371 403.229241,291.504969 408.610936,292.310067 C413.947318,293.108387 405.53514,261.899928 405.53514,261.899928 C405.53514,261.899928 410.268953,272.194802 410.673703,276.686688 C410.955847,279.817913 414.167176,276.678244 415.650648,272.999901 C419.829472,262.638291 411.714505,248.587123 411.714505,248.587123 C411.714505,248.587123 416.359529,256.294661 416.925465,259.565718 C417.491402,262.836775 420.418939,259.557274 420.411006,255.838628 C420.403073,252.119982 419.686765,248.274934 418.713196,246.025456 C415.272616,238.075829 407.719732,234.82166 407.719732,234.82166 C407.719732,234.82166 417.581323,239.483342 418.705264,242.30681 C419.330909,243.878504 422.58454,241.626839 421.770319,237.98575 C420.956097,234.344662 416.84453,230.924566 414.187112,229.859621 C408.193112,227.457559 376.725647,227.576842 373.625369,225.216136 C370.52509,222.85543 330.000021,208.770494 330.000021,208.770494 L220.899829,164.076318 L221.233036,216.932947" id="Path-5" fill="#EBB17E" transform="translate(321.400045, 228.332992) rotate(-90.000000) translate(-321.400045, -228.332992) "></path>
                    <g id="greenone" transform="translate(389.681044, 161.937776) rotate(-379.000000) translate(-389.681044, -161.937776) translate(368.681044, 141.437776)">
                        <rect id="Rectangle-6" fill="#F05040" x="5.68434189e-14" y="5.68434189e-14" width="41.3793103" height="41" rx="9.6768"></rect>
                        <rect id="Rectangle-7" fill="#FFFFFF" x="3.29153605" y="19.1333333" width="17.3981191" height="2.7661605" rx="1.38308025"></rect>
                        <rect id="Rectangle-7" fill="#FFFFFF" x="23.9811912" y="19.1333333" width="13.1661442" height="2.7661605" rx="1.38308025"></rect>
                        <rect id="Rectangle-7" fill="#FFFFFF" x="3.29153605" y="25.2833333" width="10.3448276" height="2.7661605" rx="1.38308025"></rect>
                        <rect id="Rectangle-7" fill="#FFFFFF" x="16.9278997" y="25.2833333" width="20.2194357" height="2.7661605" rx="1.38308025"></rect>
                        <rect id="Rectangle-7" fill="#FFFFFF" x="30.5642633" y="31.1366491" width="6.5830721" height="2.7661605" rx="1.38308025"></rect>
                        <rect id="Rectangle-7" fill="#FFFFFF" x="3.29153605" y="31.1366491" width="24.4514107" height="2.7661605" rx="1.38308025"></rect>
                    </g>
                    <path d="M329.988914,241.519283 C361.495473,256.327817 369.576184,278.027599 371.203002,284.605539 C372.829819,291.18348 377.999538,293.588281 379.673549,292.245515 C381.347561,290.90275 379.588925,285.329003 378.533744,281.984755 C377.478562,278.640507 373.059492,270.544498 378.456923,267.451681 C385.2759,263.544294 405.524034,261.914205 405.524034,261.914205 C405.524034,261.914205 410.257847,272.20908 410.662596,276.700966 C410.944741,279.832191 414.15607,276.692522 415.639541,273.014178 C419.818365,262.652569 411.703398,248.6014 411.703398,248.6014 C411.703398,248.6014 416.348422,256.308938 416.914358,259.579996 C417.480295,262.851053 420.407832,259.571552 420.3999,255.852906 C420.391967,252.13426 419.675658,248.289211 418.70209,246.039734 C415.26151,238.090107 407.708626,234.835937 407.708626,234.835937 C407.708626,234.835937 417.570217,239.497619 418.694157,242.321088 C419.319803,243.892782 422.573434,241.641117 421.759212,238.000028 C420.944991,234.358939 416.833424,230.938844 414.176005,229.873898 C408.182005,227.471836 376.714541,227.591119 373.614262,225.230414 C370.513984,222.869708 329.988914,208.784772 329.988914,208.784772 L220.870968,164.083112 L220.904895,216.480465" id="Path-5" fill="#EBB17E" transform="translate(321.380061, 228.343528) rotate(-90.000000) translate(-321.380061, -228.343528) "></path>
                </g>
            </g>
        </g>
    </g>
</svg>