<svg xmlns="http://www.w3.org/2000/svg" width="54" height="54" viewBox="0 0 54 54">
  <g fill="#9B9B9B" fill-rule="evenodd">
    <path d="M21.8301231 53.2631077C14.9081538 51.9164308 8.94073846 47.8697538 5.03944615 42.3335077L14.8109538 42.3335077C16.4824615 47.2632923 18.9357231 51.1413231 21.8301231 53.2631077zM12.4648615 28.1556C12.5554154 32.3543077 13.1336308 36.3685846 14.094 39.9616615L3.5532 39.9616615C1.59673846 36.4308923.412061538 32.4166154.230123077 28.1556L12.4648615 28.1556zM25.7829231 28.1556L25.7829231 39.9616615 16.8164308 39.9616615C15.8693538 36.4308923 15.2944615 32.4166154 15.2039077 28.1556L25.7829231 28.1556zM17.5433538 42.3335077L25.7829231 42.3335077 25.7829231 52.4132308C22.4374154 51.7020923 19.4740615 47.9312308 17.5433538 42.3335077zM3.57313846 13.9801846L14.0873538 13.9801846C13.1269846 17.5109538 12.5487692 21.5252308 12.4615385 25.8444L.230123077 25.8444C.408738462 21.5219077 1.60006154 17.5076308 3.57313846 13.9801846zM25.7829231 13.9801846L25.7829231 25.8444 15.2005846 25.8444C15.2844923 21.5252308 15.8627077 17.4461538 16.8097846 13.9801846L25.7829231 13.9801846zM14.8043077 11.6050154L5.06270769 11.6050154C8.94738462 6.06876923 14.8666154 2.09021538 21.7296.726923077 18.8742462 2.86864615 16.4567077 6.67855385 14.8043077 11.6050154zM25.7829231 1.39901538L25.7829231 11.6050154 17.5367077 11.6050154C19.4682462 5.94498462 22.4374154 2.10932308 25.7829231 1.39901538zM28.1556 42.3335077L36.3852 42.3335077C34.4702769 47.8697538 31.5044308 51.6406154 28.1556 52.3932923L28.1556 42.3335077zM38.7246462 28.1556C38.6340923 32.4132923 38.0567077 36.4308923 37.1121231 39.9616615L28.1556 39.9616615 28.1556 28.1556 38.7246462 28.1556zM37.1187692 13.9801846C38.0658462 17.4494769 38.6440615 21.5252308 38.7279692 25.8444L28.1556 25.8444 28.1556 13.9801846 37.1187692 13.9801846zM36.3918462 11.6050154L28.1556 11.6050154 28.1556 1.41812308C31.5625846 2.17412308 34.4769231 6.00646154 36.3918462 11.6050154zM48.8924308 11.6050154L39.1242462 11.6050154C37.4718462 6.67523077 35.0484923 2.85867692 32.1889846.720276923 39.0685846 2.07692308 45.0044308 6.06876923 48.8924308 11.6050154zM53.7241846 25.8444L41.4670154 25.8444C41.3797846 21.5252308 40.8048923 17.5076308 39.8412 13.9801846L50.382 13.9801846C52.3550769 17.5076308 53.5455692 21.5219077 53.7241846 25.8444zM39.1176 42.3335077L48.9181846 42.3335077C45.0110769 47.8697538 39.0270462 51.9297231 32.0884615 53.2697538 34.9861846 51.1504615 37.4427692 47.2632923 39.1176 42.3335077zM53.7241846 28.1556C53.5422462 32.4132923 52.3575692 36.4308923 50.4011077 39.9616615L39.8345538 39.9616615C40.7949231 36.3719077 41.3731385 32.3543077 41.4636923 28.1556L53.7241846 28.1556z"/>
    <path d="M25.7829231 28.1556L25.7829231 39.9616615 16.8164308 39.9616615C15.8693538 36.4308923 15.2944615 32.4166154 15.2039077 28.1556L25.7829231 28.1556zM17.5433538 42.3335077L25.7829231 42.3335077 25.7829231 52.4132308C22.4374154 51.7020923 19.4740615 47.9312308 17.5433538 42.3335077zM25.7829231 13.9801846L25.7829231 25.8444 15.2005846 25.8444C15.2844923 21.5252308 15.8627077 17.4461538 16.8097846 13.9801846L25.7829231 13.9801846zM25.7829231 1.39901538L25.7829231 11.6050154 17.5367077 11.6050154C19.4682462 5.94498462 22.4374154 2.10932308 25.7829231 1.39901538zM28.1556 42.3335077L36.3852 42.3335077C34.4702769 47.8697538 31.5044308 51.6406154 28.1556 52.3932923L28.1556 42.3335077zM38.7246462 28.1556C38.6340923 32.4132923 38.0567077 36.4308923 37.1121231 39.9616615L28.1556 39.9616615 28.1556 28.1556 38.7246462 28.1556zM37.1187692 13.9801846C38.0658462 17.4494769 38.6440615 21.5252308 38.7279692 25.8444L28.1556 25.8444 28.1556 13.9801846 37.1187692 13.9801846zM36.3918462 11.6050154L28.1556 11.6050154 28.1556 1.41812308C31.5625846 2.17412308 34.4769231 6.00646154 36.3918462 11.6050154z"/>
    <path d="M25.7829231 1.39901538L25.7829231 11.6050154 17.5367077 11.6050154C19.4682462 5.94498462 22.4374154 2.10932308 25.7829231 1.39901538zM25.7829231 13.9801846L25.7829231 25.8444 15.2005846 25.8444C15.2844923 21.5252308 15.8627077 17.4461538 16.8097846 13.9801846L25.7829231 13.9801846zM25.7829231 28.1556L25.7829231 39.9616615 16.8164308 39.9616615C15.8693538 36.4308923 15.2944615 32.4166154 15.2039077 28.1556L25.7829231 28.1556zM17.5433538 42.3335077L25.7829231 42.3335077 25.7829231 52.4132308C22.4374154 51.7020923 19.4740615 47.9312308 17.5433538 42.3335077zM28.1556 42.3335077L36.3852 42.3335077C34.4702769 47.8697538 31.5044308 51.6406154 28.1556 52.3932923L28.1556 42.3335077zM38.7246462 28.1556C38.6340923 32.4132923 38.0567077 36.4308923 37.1121231 39.9616615L28.1556 39.9616615 28.1556 28.1556 38.7246462 28.1556zM36.3918462 11.6050154L28.1556 11.6050154 28.1556 1.41812308C31.5625846 2.17412308 34.4769231 6.00646154 36.3918462 11.6050154zM38.7279692 25.8444L28.1556 25.8444 28.1556 13.9801846 37.1187692 13.9801846C38.0658462 17.4461538 38.6440615 21.5219077 38.7279692 25.8444z"/>
  </g>
</svg>
