<svg xmlns="http://www.w3.org/2000/svg" width="62" height="59" viewBox="0 0 62 59">
  <path fill="#9B9B9B" fill-rule="evenodd" d="M13.6086771,69.9997518 C12.755665,70.0108793 11.943619,69.6474205 11.3923504,69.0020701 C10.8373342,68.3567386 10.602666,67.5037435 10.7479355,66.6655694 L13.8359359,48.8557925 L0.865246943,36.2461515 C0.0867290655,35.489554 -0.196381348,34.3583607 0.138880733,33.3273533 C0.474123742,32.2926431 1.37186859,31.5397295 2.44837283,31.3839248 L20.4025069,28.7840468 L28.4335204,12.5873849 C28.9177613,11.6157181 29.9123429,11 31.0000041,11 C32.0876654,11 33.0822565,11.6156611 33.5664879,12.5873849 L41.5975014,28.7840468 L59.5516355,31.3839248 C60.6281397,31.5396915 61.5258464,32.2925766 61.8611276,33.3273533 C62.1963706,34.3583607 61.9132792,35.489535 61.1347614,36.2461515 L48.1640724,48.8557925 L51.2334779,66.6579738 C51.416004,67.7261047 50.9764576,68.8016412 50.0973745,69.4395765 C49.2145628,70.0737804 48.0486884,70.1590789 47.0876635,69.6583961 L30.999699,61.265451 L14.9412957,69.6658968 C14.5315489,69.8847165 14.073379,69.9996853 13.6077998,69.9996853 L13.6086771,69.9997518 Z M31.0005915,55.2012938 C31.4664591,55.1975505 31.9248751,55.3097432 32.3348038,55.5266419 L44.6035649,62 L42.2593432,48.2906535 C42.0953527,47.3557373 42.4046907,46.4020761 43.079277,45.7438934 L53,36.0353401 L39.2924574,34.0421237 C38.3569918,33.9075002 37.5519897,33.320363 37.1345713,32.4714844 L31,20 L24.8654287,32.4456358 C24.4480103,33.2907998 23.6430368,33.877937 22.7075426,34.0162751 L9,36.0431905 L18.920723,45.7517438 C19.5952998,46.4136697 19.9045901,47.367283 19.7406568,48.2985038 L17.4038771,61.9973194 L29.6659595,55.527695 C30.0759263,55.3107962 30.5343424,55.1986036 31.0001717,55.2023469 L31.0005915,55.2012938 Z" transform="translate(0 -11)"/>
</svg>
